<svg xmlns="http://www.w3.org/2000/svg" width="19.188" height="19.188" viewBox="0 0 19.188 19.188">
  <defs>
    <style>
      .cls-1 {
        fill: #fff;
        fill-rule: evenodd;
      }
    </style>
  </defs>
  <path id="icon-delete" class="cls-1" d="M0.4,3.2a0.4,0.4,0,0,0,.4.4h2V19.2a0.4,0.4,0,0,0,.4.4H16.8a0.4,0.4,0,0,0,.4-0.4V3.6h2a0.4,0.4,0,1,0,0-.8H14v-2A0.4,0.4,0,0,0,13.6.4H6.4A0.4,0.4,0,0,0,6,.8v2H0.8A0.4,0.4,0,0,0,.4,3.2ZM13.6,6a0.4,0.4,0,0,1,.4.4v9.2a0.4,0.4,0,0,1-.8,0V6.4A0.4,0.4,0,0,1,13.6,6Zm-3.2.4v9.2a0.4,0.4,0,1,1-.8,0V6.4A0.4,0.4,0,1,1,10.4,6.4Zm-3.6,0v9.2a0.4,0.4,0,1,1-.8,0V6.4A0.4,0.4,0,1,1,6.8,6.4Zm0-5.2h6.4V2.8H6.8V1.2Z" transform="translate(-0.406 -0.406)"/>
</svg>
