<svg xmlns="http://www.w3.org/2000/svg" width="18.969" height="19.188" viewBox="0 0 18.969 19.188">
  <defs>
    <style>
      .cls-1 {
        fill: #fff;
        fill-rule: evenodd;
      }
    </style>
  </defs>
  <path id="icon-edit" class="cls-1" d="M0.409,19a0.408,0.408,0,0,0,.107.379,0.4,0.4,0,0,0,.375.108L6.08,18.255a0.4,0.4,0,0,0,.1-0.038L1.664,13.656a0.4,0.4,0,0,0-.038.1ZM17.372,6.931l0.567-.573L13.4,1.771l-0.567.573ZM6.757,17.657L16.8,7.5,12.265,2.917,2.218,13.07ZM18.506,5.784L18.79,5.5a2.045,2.045,0,0,0,0-2.867l-1.7-1.72a1.992,1.992,0,0,0-2.837,0L13.967,1.2Z" transform="translate(-0.406 -0.313)"/>
</svg>
